# xmcd
#
# Track frame offsets: 
#        150
#        19935
#        37486
#        57069
#        73362
#        89884
#        108024
#        121846
#        142509
#        158230
#        177403
#        196250
#        211306
#
# Disc length: 3100 seconds
#
# Revision: 1
# Processed by: cddbd v1.5.2PL0 Copyright (c) Steve Scherf et al.
# Submitted via: ExactAudioCopy v1.1
#
DISCID=ba0c1a0d
DTITLE=徐雯 - 十億掌聲: 鄧麗君日文加中文經典歌曲
DYEAR=2010
DGENRE=Pop
TTITLE0=何日君再來
TTITLE1=つぐない
TTITLE2=ひとり上手
TTITLE3=一水隔天涯
TTITLE4=夕凪
TTITLE5=山茶花
TTITLE6=東山飄雨西山晴
TTITLE7=別れの予感
TTITLE8=人約黃昏後
TTITLE9=時の流れに身をまかせ
TTITLE10=再見我的愛人
TTITLE11=夜色
TTITLE12=星
EXTD=
EXTT0=
EXTT1=
EXTT2=
EXTT3=
EXTT4=
EXTT5=
EXTT6=
EXTT7=
EXTT8=
EXTT9=
EXTT10=
EXTT11=
EXTT12=
PLAYORDER=
